<?xml version="1.0" encoding="UTF-8" standalone="no"?>
<!DOCTYPE svg PUBLIC "-//W3C//DTD SVG 1.1//EN"
 "http://www.w3.org/Graphics/SVG/1.1/DTD/svg11.dtd">
<!-- Generated by graphviz version 2.43.0 (0)
 -->
<!-- Title: %3 Pages: 1 -->
<svg width="1621pt" height="238pt"
 viewBox="0.00 0.00 1621.00 237.74" xmlns="http://www.w3.org/2000/svg" xmlns:xlink="http://www.w3.org/1999/xlink">
<g id="graph0" class="graph" transform="scale(1 1) rotate(0) translate(36 201.74)">
<title>%3</title>
<polygon fill="dimgray" stroke="transparent" points="-36,36 -36,-201.74 1585,-201.74 1585,36 -36,36"/>
<text text-anchor="middle" x="774.5" y="-150.54" font-family="Helvetica,sans-Serif" font-size="14.00">Sweep&#39;s Plan &amp; Progress</text>
<!-- start -->
<g id="node1" class="node">
<title>start</title>
</g>
<!-- bb22295a&#45;95c3&#45;441d&#45;83eb&#45;96e50108cca4 -->
<g id="node3" class="node">
<title>bb22295a&#45;95c3&#45;441d&#45;83eb&#45;96e50108cca4</title>
<ellipse fill="#0ee832" stroke="black" cx="204" cy="-99.87" rx="85.62" ry="26.74"/>
<text text-anchor="middle" x="204" y="-103.67" font-family="Helvetica,sans-Serif" font-size="14.00">✓ Modify</text>
<text text-anchor="middle" x="204" y="-88.67" font-family="Helvetica,sans-Serif" font-size="14.00">src/database.js</text>
</g>
<!-- start&#45;&gt;bb22295a&#45;95c3&#45;441d&#45;83eb&#45;96e50108cca4 -->
<g id="edge8" class="edge">
<title>start&#45;&gt;bb22295a&#45;95c3&#45;441d&#45;83eb&#45;96e50108cca4</title>
<path fill="none" stroke="black" d="M66.88,-99.87C70.84,-99.87 87.73,-99.87 108.37,-99.87"/>
<polygon fill="black" stroke="black" points="108.42,-103.37 118.42,-99.87 108.42,-96.37 108.42,-103.37"/>
<text text-anchor="middle" x="92.47" y="-106.67" font-family="Helvetica,sans-Serif" font-size="14.00">Start</text>
</g>
<!-- end -->
<g id="node2" class="node">
<title>end</title>
</g>
<!-- c1182369&#45;09ce&#45;47c3&#45;87c7&#45;4415dd83a5c3 -->
<g id="node4" class="node">
<title>c1182369&#45;09ce&#45;47c3&#45;87c7&#45;4415dd83a5c3</title>
<ellipse fill="white" stroke="black" cx="562" cy="-99.87" rx="189.51" ry="26.74"/>
<text text-anchor="middle" x="562" y="-103.67" font-family="Helvetica,sans-Serif" font-size="14.00">▶ Modify</text>
<text text-anchor="middle" x="562" y="-88.67" font-family="Helvetica,sans-Serif" font-size="14.00">autogram_enhanced/src/database.js</text>
</g>
<!-- bb22295a&#45;95c3&#45;441d&#45;83eb&#45;96e50108cca4&#45;&gt;c1182369&#45;09ce&#45;47c3&#45;87c7&#45;4415dd83a5c3 -->
<g id="edge2" class="edge">
<title>bb22295a&#45;95c3&#45;441d&#45;83eb&#45;96e50108cca4&#45;&gt;c1182369&#45;09ce&#45;47c3&#45;87c7&#45;4415dd83a5c3</title>
<path fill="none" stroke="black" d="M289.65,-99.87C313.89,-99.87 338.12,-99.87 362.35,-99.87"/>
<polygon fill="black" stroke="black" points="362.37,-103.37 372.37,-99.87 362.37,-96.37 362.37,-103.37"/>
</g>
<!-- ab07e26d&#45;16ed&#45;4ac0&#45;89ff&#45;1012f5739eca -->
<g id="node7" class="node">
<title>ab07e26d&#45;16ed&#45;4ac0&#45;89ff&#45;1012f5739eca</title>
<polygon fill="#0ee832" stroke="black" points="314,-36 0,-36 0,0 314,0 314,-36"/>
<text text-anchor="middle" x="157" y="-14.3" font-family="Helvetica,sans-Serif" font-size="14.00">✓ Run GitHub Actions for `src/database.js`</text>
</g>
<!-- bb22295a&#45;95c3&#45;441d&#45;83eb&#45;96e50108cca4&#45;&gt;ab07e26d&#45;16ed&#45;4ac0&#45;89ff&#45;1012f5739eca -->
<g id="edge1" class="edge">
<title>bb22295a&#45;95c3&#45;441d&#45;83eb&#45;96e50108cca4&#45;&gt;ab07e26d&#45;16ed&#45;4ac0&#45;89ff&#45;1012f5739eca</title>
<path fill="none" stroke="black" stroke-dasharray="5,2" d="M188.87,-73.16C183.61,-64.22 177.71,-54.2 172.43,-45.22"/>
<polygon fill="black" stroke="black" points="175.29,-43.18 167.2,-36.34 169.26,-46.73 175.29,-43.18"/>
</g>
<!-- bf41bbec&#45;f749&#45;4c30&#45;b31c&#45;0b283c3e8e6a -->
<g id="node5" class="node">
<title>bf41bbec&#45;f749&#45;4c30&#45;b31c&#45;0b283c3e8e6a</title>
<ellipse fill="white" stroke="black" cx="953" cy="-99.87" rx="67.35" ry="26.74"/>
<text text-anchor="middle" x="953" y="-103.67" font-family="Helvetica,sans-Serif" font-size="14.00">▶ Modify</text>
<text text-anchor="middle" x="953" y="-88.67" font-family="Helvetica,sans-Serif" font-size="14.00">src/index.js</text>
</g>
<!-- c1182369&#45;09ce&#45;47c3&#45;87c7&#45;4415dd83a5c3&#45;&gt;bf41bbec&#45;f749&#45;4c30&#45;b31c&#45;0b283c3e8e6a -->
<g id="edge4" class="edge">
<title>c1182369&#45;09ce&#45;47c3&#45;87c7&#45;4415dd83a5c3&#45;&gt;bf41bbec&#45;f749&#45;4c30&#45;b31c&#45;0b283c3e8e6a</title>
<path fill="none" stroke="black" d="M751.77,-99.87C793.04,-99.87 834.31,-99.87 875.58,-99.87"/>
<polygon fill="black" stroke="black" points="875.79,-103.37 885.79,-99.87 875.79,-96.37 875.79,-103.37"/>
</g>
<!-- c1a2d781&#45;3122&#45;496c&#45;831a&#45;aa9a2f31a141 -->
<g id="node8" class="node">
<title>c1a2d781&#45;3122&#45;496c&#45;831a&#45;aa9a2f31a141</title>
<polygon fill="white" stroke="black" points="791.5,-36 332.5,-36 332.5,0 791.5,0 791.5,-36"/>
<text text-anchor="middle" x="562" y="-14.3" font-family="Helvetica,sans-Serif" font-size="14.00">▶ Run GitHub Actions for `autogram_enhanced/src/database.js`</text>
</g>
<!-- c1182369&#45;09ce&#45;47c3&#45;87c7&#45;4415dd83a5c3&#45;&gt;c1a2d781&#45;3122&#45;496c&#45;831a&#45;aa9a2f31a141 -->
<g id="edge3" class="edge">
<title>c1182369&#45;09ce&#45;47c3&#45;87c7&#45;4415dd83a5c3&#45;&gt;c1a2d781&#45;3122&#45;496c&#45;831a&#45;aa9a2f31a141</title>
<path fill="none" stroke="black" stroke-dasharray="5,2" d="M562,-72.72C562,-64.27 562,-54.89 562,-46.36"/>
<polygon fill="black" stroke="black" points="565.5,-46.15 562,-36.15 558.5,-46.15 565.5,-46.15"/>
</g>
<!-- 874a33d6&#45;5739&#45;4e91&#45;a1c2&#45;cbd38f717ebc -->
<g id="node6" class="node">
<title>874a33d6&#45;5739&#45;4e91&#45;a1c2&#45;cbd38f717ebc</title>
<ellipse fill="white" stroke="black" cx="1280" cy="-99.87" rx="171.24" ry="26.74"/>
<text text-anchor="middle" x="1280" y="-103.67" font-family="Helvetica,sans-Serif" font-size="14.00">▶ Modify</text>
<text text-anchor="middle" x="1280" y="-88.67" font-family="Helvetica,sans-Serif" font-size="14.00">autogram_enhanced/src/index.js</text>
</g>
<!-- bf41bbec&#45;f749&#45;4c30&#45;b31c&#45;0b283c3e8e6a&#45;&gt;874a33d6&#45;5739&#45;4e91&#45;a1c2&#45;cbd38f717ebc -->
<g id="edge6" class="edge">
<title>bf41bbec&#45;f749&#45;4c30&#45;b31c&#45;0b283c3e8e6a&#45;&gt;874a33d6&#45;5739&#45;4e91&#45;a1c2&#45;cbd38f717ebc</title>
<path fill="none" stroke="black" d="M1020.38,-99.87C1046.53,-99.87 1072.69,-99.87 1098.84,-99.87"/>
<polygon fill="black" stroke="black" points="1098.86,-103.37 1108.86,-99.87 1098.86,-96.37 1098.86,-103.37"/>
</g>
<!-- 1ec39c30&#45;7818&#45;4b9a&#45;a037&#45;85c4d1e6e1cc -->
<g id="node9" class="node">
<title>1ec39c30&#45;7818&#45;4b9a&#45;a037&#45;85c4d1e6e1cc</title>
<polygon fill="white" stroke="black" points="1096.5,-36 809.5,-36 809.5,0 1096.5,0 1096.5,-36"/>
<text text-anchor="middle" x="953" y="-14.3" font-family="Helvetica,sans-Serif" font-size="14.00">▶ Run GitHub Actions for `src/index.js`</text>
</g>
<!-- bf41bbec&#45;f749&#45;4c30&#45;b31c&#45;0b283c3e8e6a&#45;&gt;1ec39c30&#45;7818&#45;4b9a&#45;a037&#45;85c4d1e6e1cc -->
<g id="edge5" class="edge">
<title>bf41bbec&#45;f749&#45;4c30&#45;b31c&#45;0b283c3e8e6a&#45;&gt;1ec39c30&#45;7818&#45;4b9a&#45;a037&#45;85c4d1e6e1cc</title>
<path fill="none" stroke="black" stroke-dasharray="5,2" d="M953,-72.72C953,-64.27 953,-54.89 953,-46.36"/>
<polygon fill="black" stroke="black" points="956.5,-46.15 953,-36.15 949.5,-46.15 956.5,-46.15"/>
</g>
<!-- 874a33d6&#45;5739&#45;4e91&#45;a1c2&#45;cbd38f717ebc&#45;&gt;end -->
<g id="edge9" class="edge">
<title>874a33d6&#45;5739&#45;4e91&#45;a1c2&#45;cbd38f717ebc&#45;&gt;end</title>
<path fill="none" stroke="black" d="M1451.21,-99.87C1471.15,-99.87 1488.02,-99.87 1498.29,-99.87"/>
<polygon fill="black" stroke="black" points="1498.36,-103.37 1508.36,-99.87 1498.36,-96.37 1498.36,-103.37"/>
<text text-anchor="middle" x="1479.81" y="-106.67" font-family="Helvetica,sans-Serif" font-size="14.00">Finish</text>
</g>
<!-- 16f25182&#45;fa66&#45;4a85&#45;9a2c&#45;756b77ded34a -->
<g id="node10" class="node">
<title>16f25182&#45;fa66&#45;4a85&#45;9a2c&#45;756b77ded34a</title>
<polygon fill="white" stroke="black" points="1549,-36 1115,-36 1115,0 1549,0 1549,-36"/>
<text text-anchor="middle" x="1332" y="-14.3" font-family="Helvetica,sans-Serif" font-size="14.00">▶ Run GitHub Actions for `autogram_enhanced/src/index.js`</text>
</g>
<!-- 874a33d6&#45;5739&#45;4e91&#45;a1c2&#45;cbd38f717ebc&#45;&gt;16f25182&#45;fa66&#45;4a85&#45;9a2c&#45;756b77ded34a -->
<g id="edge7" class="edge">
<title>874a33d6&#45;5739&#45;4e91&#45;a1c2&#45;cbd38f717ebc&#45;&gt;16f25182&#45;fa66&#45;4a85&#45;9a2c&#45;756b77ded34a</title>
<path fill="none" stroke="black" stroke-dasharray="5,2" d="M1297.03,-72.72C1302.89,-63.71 1309.45,-53.64 1315.29,-44.67"/>
<polygon fill="black" stroke="black" points="1318.31,-46.44 1320.84,-36.15 1312.45,-42.62 1318.31,-46.44"/>
</g>
</g>
</svg>
