<?xml version="1.0" encoding="UTF-8" standalone="no"?>
<!DOCTYPE svg PUBLIC "-//W3C//DTD SVG 1.1//EN"
 "http://www.w3.org/Graphics/SVG/1.1/DTD/svg11.dtd">
<!-- Generated by graphviz version 2.43.0 (0)
 -->
<!-- Title: %3 Pages: 1 -->
<svg width="2193pt" height="238pt"
 viewBox="0.00 0.00 2192.50 237.74" xmlns="http://www.w3.org/2000/svg" xmlns:xlink="http://www.w3.org/1999/xlink">
<g id="graph0" class="graph" transform="scale(1 1) rotate(0) translate(36 201.74)">
<title>%3</title>
<polygon fill="dimgray" stroke="transparent" points="-36,36 -36,-201.74 2156.5,-201.74 2156.5,36 -36,36"/>
<text text-anchor="middle" x="1060.25" y="-150.54" font-family="Helvetica,sans-Serif" font-size="14.00">Sweep&#39;s Plan &amp; Progress</text>
<!-- start -->
<g id="node1" class="node">
<title>start</title>
</g>
<!-- 69dd3a8c&#45;2142&#45;4a91&#45;a100&#45;a94aed18d641 -->
<g id="node3" class="node">
<title>69dd3a8c&#45;2142&#45;4a91&#45;a100&#45;a94aed18d641</title>
<ellipse fill="#0ee832" stroke="black" cx="277.5" cy="-99.87" rx="224.72" ry="26.74"/>
<text text-anchor="middle" x="277.5" y="-103.67" font-family="Helvetica,sans-Serif" font-size="14.00">✓ Create</text>
<text text-anchor="middle" x="277.5" y="-88.67" font-family="Helvetica,sans-Serif" font-size="14.00">autogram_enhanced/src/accountManager.js</text>
</g>
<!-- start&#45;&gt;69dd3a8c&#45;2142&#45;4a91&#45;a100&#45;a94aed18d641 -->
<g id="edge8" class="edge">
<title>start&#45;&gt;69dd3a8c&#45;2142&#45;4a91&#45;a100&#45;a94aed18d641</title>
<path fill="none" stroke="black" d="M1.29,-99.87C4.89,-99.87 20.4,-99.87 42.39,-99.87"/>
<polygon fill="black" stroke="black" points="42.56,-103.37 52.56,-99.87 42.56,-96.37 42.56,-103.37"/>
<text text-anchor="middle" x="26.82" y="-106.67" font-family="Helvetica,sans-Serif" font-size="14.00">Start</text>
</g>
<!-- end -->
<g id="node2" class="node">
<title>end</title>
</g>
<!-- c651f3d7&#45;e9cb&#45;4131&#45;9d1f&#45;e47443423b65 -->
<g id="node4" class="node">
<title>c651f3d7&#45;e9cb&#45;4131&#45;9d1f&#45;e47443423b65</title>
<ellipse fill="#0ee832" stroke="black" cx="810.5" cy="-99.87" rx="254.62" ry="26.74"/>
<text text-anchor="middle" x="810.5" y="-103.67" font-family="Helvetica,sans-Serif" font-size="14.00">✓ Modify</text>
<text text-anchor="middle" x="810.5" y="-88.67" font-family="Helvetica,sans-Serif" font-size="14.00">autogram_enhanced/src/customizationManager.js</text>
</g>
<!-- 69dd3a8c&#45;2142&#45;4a91&#45;a100&#45;a94aed18d641&#45;&gt;c651f3d7&#45;e9cb&#45;4131&#45;9d1f&#45;e47443423b65 -->
<g id="edge2" class="edge">
<title>69dd3a8c&#45;2142&#45;4a91&#45;a100&#45;a94aed18d641&#45;&gt;c651f3d7&#45;e9cb&#45;4131&#45;9d1f&#45;e47443423b65</title>
<path fill="none" stroke="black" d="M502.62,-99.87C516.89,-99.87 531.17,-99.87 545.44,-99.87"/>
<polygon fill="black" stroke="black" points="545.84,-103.37 555.84,-99.87 545.84,-96.37 545.84,-103.37"/>
</g>
<!-- 2b9406c7&#45;e79a&#45;4543&#45;9c98&#45;6728c51e157b -->
<g id="node7" class="node">
<title>2b9406c7&#45;e79a&#45;4543&#45;9c98&#45;6728c51e157b</title>
<polygon fill="#0ee832" stroke="black" points="516,-36 5,-36 5,0 516,0 516,-36"/>
<text text-anchor="middle" x="260.5" y="-14.3" font-family="Helvetica,sans-Serif" font-size="14.00">✓ Run GitHub Actions for `autogram_enhanced/src/accountManager.js`</text>
</g>
<!-- 69dd3a8c&#45;2142&#45;4a91&#45;a100&#45;a94aed18d641&#45;&gt;2b9406c7&#45;e79a&#45;4543&#45;9c98&#45;6728c51e157b -->
<g id="edge1" class="edge">
<title>69dd3a8c&#45;2142&#45;4a91&#45;a100&#45;a94aed18d641&#45;&gt;2b9406c7&#45;e79a&#45;4543&#45;9c98&#45;6728c51e157b</title>
<path fill="none" stroke="black" stroke-dasharray="5,2" d="M271.93,-72.72C270.12,-64.18 268.09,-54.68 266.26,-46.08"/>
<polygon fill="black" stroke="black" points="269.65,-45.2 264.15,-36.15 262.81,-46.66 269.65,-45.2"/>
</g>
<!-- cdec47af&#45;246b&#45;41b4&#45;8922&#45;b41b6f2ee9f1 -->
<g id="node5" class="node">
<title>cdec47af&#45;246b&#45;41b4&#45;8922&#45;b41b6f2ee9f1</title>
<ellipse fill="#0ee832" stroke="black" cx="1379.5" cy="-99.87" rx="251.96" ry="26.74"/>
<text text-anchor="middle" x="1379.5" y="-103.67" font-family="Helvetica,sans-Serif" font-size="14.00">✓ Modify</text>
<text text-anchor="middle" x="1379.5" y="-88.67" font-family="Helvetica,sans-Serif" font-size="14.00">autogram_enhanced/src/engagementEnhancer.js</text>
</g>
<!-- c651f3d7&#45;e9cb&#45;4131&#45;9d1f&#45;e47443423b65&#45;&gt;cdec47af&#45;246b&#45;41b4&#45;8922&#45;b41b6f2ee9f1 -->
<g id="edge4" class="edge">
<title>c651f3d7&#45;e9cb&#45;4131&#45;9d1f&#45;e47443423b65&#45;&gt;cdec47af&#45;246b&#45;41b4&#45;8922&#45;b41b6f2ee9f1</title>
<path fill="none" stroke="black" d="M1065.27,-99.87C1082.63,-99.87 1099.99,-99.87 1117.35,-99.87"/>
<polygon fill="black" stroke="black" points="1117.57,-103.37 1127.57,-99.87 1117.57,-96.37 1117.57,-103.37"/>
</g>
<!-- 34ff7259&#45;0b92&#45;4886&#45;926a&#45;2a79501e5304 -->
<g id="node8" class="node">
<title>34ff7259&#45;0b92&#45;4886&#45;926a&#45;2a79501e5304</title>
<polygon fill="#0ee832" stroke="black" points="1087,-36 534,-36 534,0 1087,0 1087,-36"/>
<text text-anchor="middle" x="810.5" y="-14.3" font-family="Helvetica,sans-Serif" font-size="14.00">✓ Run GitHub Actions for `autogram_enhanced/src/customizationManager.js`</text>
</g>
<!-- c651f3d7&#45;e9cb&#45;4131&#45;9d1f&#45;e47443423b65&#45;&gt;34ff7259&#45;0b92&#45;4886&#45;926a&#45;2a79501e5304 -->
<g id="edge3" class="edge">
<title>c651f3d7&#45;e9cb&#45;4131&#45;9d1f&#45;e47443423b65&#45;&gt;34ff7259&#45;0b92&#45;4886&#45;926a&#45;2a79501e5304</title>
<path fill="none" stroke="black" stroke-dasharray="5,2" d="M810.5,-72.72C810.5,-64.27 810.5,-54.89 810.5,-46.36"/>
<polygon fill="black" stroke="black" points="814,-46.15 810.5,-36.15 807,-46.15 814,-46.15"/>
</g>
<!-- 21d847b4&#45;c082&#45;468a&#45;b971&#45;49777b44c4c8 -->
<g id="node6" class="node">
<title>21d847b4&#45;c082&#45;468a&#45;b971&#45;49777b44c4c8</title>
<ellipse fill="#0ee832" stroke="black" cx="1871.5" cy="-99.87" rx="178.8" ry="26.74"/>
<text text-anchor="middle" x="1871.5" y="-103.67" font-family="Helvetica,sans-Serif" font-size="14.00">✓ Modify</text>
<text text-anchor="middle" x="1871.5" y="-88.67" font-family="Helvetica,sans-Serif" font-size="14.00">autogram_enhanced/autogram.py</text>
</g>
<!-- cdec47af&#45;246b&#45;41b4&#45;8922&#45;b41b6f2ee9f1&#45;&gt;21d847b4&#45;c082&#45;468a&#45;b971&#45;49777b44c4c8 -->
<g id="edge6" class="edge">
<title>cdec47af&#45;246b&#45;41b4&#45;8922&#45;b41b6f2ee9f1&#45;&gt;21d847b4&#45;c082&#45;468a&#45;b971&#45;49777b44c4c8</title>
<path fill="none" stroke="black" d="M1631.27,-99.87C1648.26,-99.87 1665.26,-99.87 1682.26,-99.87"/>
<polygon fill="black" stroke="black" points="1682.26,-103.37 1692.26,-99.87 1682.26,-96.37 1682.26,-103.37"/>
</g>
<!-- 63f83171&#45;39ac&#45;448e&#45;870e&#45;4bd10a3788b7 -->
<g id="node9" class="node">
<title>63f83171&#45;39ac&#45;448e&#45;870e&#45;4bd10a3788b7</title>
<polygon fill="#0ee832" stroke="black" points="1654,-36 1105,-36 1105,0 1654,0 1654,-36"/>
<text text-anchor="middle" x="1379.5" y="-14.3" font-family="Helvetica,sans-Serif" font-size="14.00">✓ Run GitHub Actions for `autogram_enhanced/src/engagementEnhancer.js`</text>
</g>
<!-- cdec47af&#45;246b&#45;41b4&#45;8922&#45;b41b6f2ee9f1&#45;&gt;63f83171&#45;39ac&#45;448e&#45;870e&#45;4bd10a3788b7 -->
<g id="edge5" class="edge">
<title>cdec47af&#45;246b&#45;41b4&#45;8922&#45;b41b6f2ee9f1&#45;&gt;63f83171&#45;39ac&#45;448e&#45;870e&#45;4bd10a3788b7</title>
<path fill="none" stroke="black" stroke-dasharray="5,2" d="M1379.5,-72.72C1379.5,-64.27 1379.5,-54.89 1379.5,-46.36"/>
<polygon fill="black" stroke="black" points="1383,-46.15 1379.5,-36.15 1376,-46.15 1383,-46.15"/>
</g>
<!-- 21d847b4&#45;c082&#45;468a&#45;b971&#45;49777b44c4c8&#45;&gt;end -->
<g id="edge9" class="edge">
<title>21d847b4&#45;c082&#45;468a&#45;b971&#45;49777b44c4c8&#45;&gt;end</title>
<path fill="none" stroke="black" d="M2050.52,-99.87C2070.6,-99.87 2087.51,-99.87 2097.79,-99.87"/>
<polygon fill="black" stroke="black" points="2097.86,-103.37 2107.86,-99.87 2097.86,-96.37 2097.86,-103.37"/>
<text text-anchor="middle" x="2079.2" y="-106.67" font-family="Helvetica,sans-Serif" font-size="14.00">Finish</text>
</g>
<!-- 3c31cc6c&#45;b42f&#45;4220&#45;bfa9&#45;cc2dbda30d02 -->
<g id="node10" class="node">
<title>3c31cc6c&#45;b42f&#45;4220&#45;bfa9&#45;cc2dbda30d02</title>
<polygon fill="yellow" stroke="black" points="2120.5,-36 1672.5,-36 1672.5,0 2120.5,0 2120.5,-36"/>
<text text-anchor="middle" x="1896.5" y="-14.3" font-family="Helvetica,sans-Serif" font-size="14.00">⋯ Run GitHub Actions for `autogram_enhanced/autogram.py`</text>
</g>
<!-- 21d847b4&#45;c082&#45;468a&#45;b971&#45;49777b44c4c8&#45;&gt;3c31cc6c&#45;b42f&#45;4220&#45;bfa9&#45;cc2dbda30d02 -->
<g id="edge7" class="edge">
<title>21d847b4&#45;c082&#45;468a&#45;b971&#45;49777b44c4c8&#45;&gt;3c31cc6c&#45;b42f&#45;4220&#45;bfa9&#45;cc2dbda30d02</title>
<path fill="none" stroke="black" stroke-dasharray="5,2" d="M1879.69,-72.72C1882.39,-64.08 1885.4,-54.47 1888.11,-45.79"/>
<polygon fill="black" stroke="black" points="1891.49,-46.74 1891.13,-36.15 1884.81,-44.64 1891.49,-46.74"/>
</g>
</g>
</svg>
