<?xml version="1.0" encoding="UTF-8" standalone="no"?>
<!DOCTYPE svg PUBLIC "-//W3C//DTD SVG 1.1//EN"
 "http://www.w3.org/Graphics/SVG/1.1/DTD/svg11.dtd">
<!-- Generated by graphviz version 2.43.0 (0)
 -->
<!-- Title: %3 Pages: 1 -->
<svg width="1108pt" height="165pt"
 viewBox="0.00 0.00 1108.00 164.74" xmlns="http://www.w3.org/2000/svg" xmlns:xlink="http://www.w3.org/1999/xlink">
<g id="graph0" class="graph" transform="scale(1 1) rotate(0) translate(36 128.74)">
<title>%3</title>
<polygon fill="dimgray" stroke="transparent" points="-36,36 -36,-128.74 1072,-128.74 1072,36 -36,36"/>
<text text-anchor="middle" x="518" y="-77.54" font-family="Helvetica,sans-Serif" font-size="14.00">Sweep&#39;s Plan &amp; Progress</text>
<!-- start -->
<g id="node1" class="node">
<title>start</title>
</g>
<!-- 36fc1e35&#45;b22f&#45;4410&#45;8aea&#45;93ab2f3d0d01 -->
<g id="node3" class="node">
<title>36fc1e35&#45;b22f&#45;4410&#45;8aea&#45;93ab2f3d0d01</title>
<ellipse fill="#0ee832" stroke="black" cx="307.5" cy="-26.87" rx="254.62" ry="26.74"/>
<text text-anchor="middle" x="307.5" y="-30.67" font-family="Helvetica,sans-Serif" font-size="14.00">✓ Modify</text>
<text text-anchor="middle" x="307.5" y="-15.67" font-family="Helvetica,sans-Serif" font-size="14.00">autogram_enhanced/src/customizationManager.js</text>
</g>
<!-- start&#45;&gt;36fc1e35&#45;b22f&#45;4410&#45;8aea&#45;93ab2f3d0d01 -->
<g id="edge2" class="edge">
<title>start&#45;&gt;36fc1e35&#45;b22f&#45;4410&#45;8aea&#45;93ab2f3d0d01</title>
<path fill="none" stroke="black" d="M1.38,-26.87C5.12,-26.87 20.49,-26.87 42.51,-26.87"/>
<polygon fill="black" stroke="black" points="42.71,-30.37 52.71,-26.87 42.71,-23.37 42.71,-30.37"/>
<text text-anchor="middle" x="26.97" y="-33.67" font-family="Helvetica,sans-Serif" font-size="14.00">Start</text>
</g>
<!-- end -->
<g id="node2" class="node">
<title>end</title>
</g>
<!-- 9db7efa2&#45;3552&#45;4a29&#45;9c0a&#45;cf9748f0994a -->
<g id="node4" class="node">
<title>9db7efa2&#45;3552&#45;4a29&#45;9c0a&#45;cf9748f0994a</title>
<ellipse fill="#0ee832" stroke="black" cx="787.5" cy="-26.87" rx="189.51" ry="26.74"/>
<text text-anchor="middle" x="787.5" y="-30.67" font-family="Helvetica,sans-Serif" font-size="14.00">✓ Modify</text>
<text text-anchor="middle" x="787.5" y="-15.67" font-family="Helvetica,sans-Serif" font-size="14.00">autogram_enhanced/src/database.js</text>
</g>
<!-- 36fc1e35&#45;b22f&#45;4410&#45;8aea&#45;93ab2f3d0d01&#45;&gt;9db7efa2&#45;3552&#45;4a29&#45;9c0a&#45;cf9748f0994a -->
<g id="edge1" class="edge">
<title>36fc1e35&#45;b22f&#45;4410&#45;8aea&#45;93ab2f3d0d01&#45;&gt;9db7efa2&#45;3552&#45;4a29&#45;9c0a&#45;cf9748f0994a</title>
<path fill="none" stroke="black" d="M562.5,-26.87C570.83,-26.87 579.16,-26.87 587.49,-26.87"/>
<polygon fill="black" stroke="black" points="587.66,-30.37 597.66,-26.87 587.66,-23.37 587.66,-30.37"/>
</g>
<!-- 9db7efa2&#45;3552&#45;4a29&#45;9c0a&#45;cf9748f0994a&#45;&gt;end -->
<g id="edge3" class="edge">
<title>9db7efa2&#45;3552&#45;4a29&#45;9c0a&#45;cf9748f0994a&#45;&gt;end</title>
<path fill="none" stroke="black" d="M977.04,-26.87C997.37,-26.87 1014.4,-26.87 1024.75,-26.87"/>
<polygon fill="black" stroke="black" points="1024.86,-30.37 1034.86,-26.87 1024.86,-23.37 1024.86,-30.37"/>
<text text-anchor="middle" x="1006" y="-33.67" font-family="Helvetica,sans-Serif" font-size="14.00">Finish</text>
</g>
</g>
</svg>
