<?xml version="1.0" encoding="UTF-8" standalone="no"?>
<!DOCTYPE svg PUBLIC "-//W3C//DTD SVG 1.1//EN"
 "http://www.w3.org/Graphics/SVG/1.1/DTD/svg11.dtd">
<!-- Generated by graphviz version 2.43.0 (0)
 -->
<!-- Title: %3 Pages: 1 -->
<svg width="1619pt" height="238pt"
 viewBox="0.00 0.00 1619.00 237.74" xmlns="http://www.w3.org/2000/svg" xmlns:xlink="http://www.w3.org/1999/xlink">
<g id="graph0" class="graph" transform="scale(1 1) rotate(0) translate(36 201.74)">
<title>%3</title>
<polygon fill="dimgray" stroke="transparent" points="-36,36 -36,-201.74 1583,-201.74 1583,36 -36,36"/>
<text text-anchor="middle" x="773.5" y="-150.54" font-family="Helvetica,sans-Serif" font-size="14.00">Sweep&#39;s Plan &amp; Progress</text>
<!-- start -->
<g id="node1" class="node">
<title>start</title>
</g>
<!-- bb22295a&#45;95c3&#45;441d&#45;83eb&#45;96e50108cca4 -->
<g id="node3" class="node">
<title>bb22295a&#45;95c3&#45;441d&#45;83eb&#45;96e50108cca4</title>
<ellipse fill="yellow" stroke="black" cx="202" cy="-99.87" rx="85.62" ry="26.74"/>
<text text-anchor="middle" x="202" y="-103.67" font-family="Helvetica,sans-Serif" font-size="14.00">⋯ Modify</text>
<text text-anchor="middle" x="202" y="-88.67" font-family="Helvetica,sans-Serif" font-size="14.00">src/database.js</text>
</g>
<!-- start&#45;&gt;bb22295a&#45;95c3&#45;441d&#45;83eb&#45;96e50108cca4 -->
<g id="edge8" class="edge">
<title>start&#45;&gt;bb22295a&#45;95c3&#45;441d&#45;83eb&#45;96e50108cca4</title>
<path fill="none" stroke="black" d="M64.88,-99.87C68.84,-99.87 85.73,-99.87 106.37,-99.87"/>
<polygon fill="black" stroke="black" points="106.42,-103.37 116.42,-99.87 106.42,-96.37 106.42,-103.37"/>
<text text-anchor="middle" x="90.47" y="-106.67" font-family="Helvetica,sans-Serif" font-size="14.00">Start</text>
</g>
<!-- end -->
<g id="node2" class="node">
<title>end</title>
</g>
<!-- c1182369&#45;09ce&#45;47c3&#45;87c7&#45;4415dd83a5c3 -->
<g id="node4" class="node">
<title>c1182369&#45;09ce&#45;47c3&#45;87c7&#45;4415dd83a5c3</title>
<ellipse fill="white" stroke="black" cx="560" cy="-99.87" rx="189.51" ry="26.74"/>
<text text-anchor="middle" x="560" y="-103.67" font-family="Helvetica,sans-Serif" font-size="14.00">▶ Modify</text>
<text text-anchor="middle" x="560" y="-88.67" font-family="Helvetica,sans-Serif" font-size="14.00">autogram_enhanced/src/database.js</text>
</g>
<!-- bb22295a&#45;95c3&#45;441d&#45;83eb&#45;96e50108cca4&#45;&gt;c1182369&#45;09ce&#45;47c3&#45;87c7&#45;4415dd83a5c3 -->
<g id="edge2" class="edge">
<title>bb22295a&#45;95c3&#45;441d&#45;83eb&#45;96e50108cca4&#45;&gt;c1182369&#45;09ce&#45;47c3&#45;87c7&#45;4415dd83a5c3</title>
<path fill="none" stroke="black" d="M287.65,-99.87C311.89,-99.87 336.12,-99.87 360.35,-99.87"/>
<polygon fill="black" stroke="black" points="360.37,-103.37 370.37,-99.87 360.37,-96.37 360.37,-103.37"/>
</g>
<!-- ab07e26d&#45;16ed&#45;4ac0&#45;89ff&#45;1012f5739eca -->
<g id="node7" class="node">
<title>ab07e26d&#45;16ed&#45;4ac0&#45;89ff&#45;1012f5739eca</title>
<polygon fill="white" stroke="black" points="312,-36 0,-36 0,0 312,0 312,-36"/>
<text text-anchor="middle" x="156" y="-14.3" font-family="Helvetica,sans-Serif" font-size="14.00">▶ Run GitHub Actions for `src/database.js`</text>
</g>
<!-- bb22295a&#45;95c3&#45;441d&#45;83eb&#45;96e50108cca4&#45;&gt;ab07e26d&#45;16ed&#45;4ac0&#45;89ff&#45;1012f5739eca -->
<g id="edge1" class="edge">
<title>bb22295a&#45;95c3&#45;441d&#45;83eb&#45;96e50108cca4&#45;&gt;ab07e26d&#45;16ed&#45;4ac0&#45;89ff&#45;1012f5739eca</title>
<path fill="none" stroke="black" stroke-dasharray="5,2" d="M187.19,-73.16C182.05,-64.22 176.27,-54.2 171.1,-45.22"/>
<polygon fill="black" stroke="black" points="174.01,-43.26 165.98,-36.34 167.94,-46.75 174.01,-43.26"/>
</g>
<!-- bf41bbec&#45;f749&#45;4c30&#45;b31c&#45;0b283c3e8e6a -->
<g id="node5" class="node">
<title>bf41bbec&#45;f749&#45;4c30&#45;b31c&#45;0b283c3e8e6a</title>
<ellipse fill="white" stroke="black" cx="951" cy="-99.87" rx="67.35" ry="26.74"/>
<text text-anchor="middle" x="951" y="-103.67" font-family="Helvetica,sans-Serif" font-size="14.00">▶ Modify</text>
<text text-anchor="middle" x="951" y="-88.67" font-family="Helvetica,sans-Serif" font-size="14.00">src/index.js</text>
</g>
<!-- c1182369&#45;09ce&#45;47c3&#45;87c7&#45;4415dd83a5c3&#45;&gt;bf41bbec&#45;f749&#45;4c30&#45;b31c&#45;0b283c3e8e6a -->
<g id="edge4" class="edge">
<title>c1182369&#45;09ce&#45;47c3&#45;87c7&#45;4415dd83a5c3&#45;&gt;bf41bbec&#45;f749&#45;4c30&#45;b31c&#45;0b283c3e8e6a</title>
<path fill="none" stroke="black" d="M749.77,-99.87C791.04,-99.87 832.31,-99.87 873.58,-99.87"/>
<polygon fill="black" stroke="black" points="873.79,-103.37 883.79,-99.87 873.79,-96.37 873.79,-103.37"/>
</g>
<!-- c1a2d781&#45;3122&#45;496c&#45;831a&#45;aa9a2f31a141 -->
<g id="node8" class="node">
<title>c1a2d781&#45;3122&#45;496c&#45;831a&#45;aa9a2f31a141</title>
<polygon fill="white" stroke="black" points="789.5,-36 330.5,-36 330.5,0 789.5,0 789.5,-36"/>
<text text-anchor="middle" x="560" y="-14.3" font-family="Helvetica,sans-Serif" font-size="14.00">▶ Run GitHub Actions for `autogram_enhanced/src/database.js`</text>
</g>
<!-- c1182369&#45;09ce&#45;47c3&#45;87c7&#45;4415dd83a5c3&#45;&gt;c1a2d781&#45;3122&#45;496c&#45;831a&#45;aa9a2f31a141 -->
<g id="edge3" class="edge">
<title>c1182369&#45;09ce&#45;47c3&#45;87c7&#45;4415dd83a5c3&#45;&gt;c1a2d781&#45;3122&#45;496c&#45;831a&#45;aa9a2f31a141</title>
<path fill="none" stroke="black" stroke-dasharray="5,2" d="M560,-72.72C560,-64.27 560,-54.89 560,-46.36"/>
<polygon fill="black" stroke="black" points="563.5,-46.15 560,-36.15 556.5,-46.15 563.5,-46.15"/>
</g>
<!-- 874a33d6&#45;5739&#45;4e91&#45;a1c2&#45;cbd38f717ebc -->
<g id="node6" class="node">
<title>874a33d6&#45;5739&#45;4e91&#45;a1c2&#45;cbd38f717ebc</title>
<ellipse fill="white" stroke="black" cx="1278" cy="-99.87" rx="171.24" ry="26.74"/>
<text text-anchor="middle" x="1278" y="-103.67" font-family="Helvetica,sans-Serif" font-size="14.00">▶ Modify</text>
<text text-anchor="middle" x="1278" y="-88.67" font-family="Helvetica,sans-Serif" font-size="14.00">autogram_enhanced/src/index.js</text>
</g>
<!-- bf41bbec&#45;f749&#45;4c30&#45;b31c&#45;0b283c3e8e6a&#45;&gt;874a33d6&#45;5739&#45;4e91&#45;a1c2&#45;cbd38f717ebc -->
<g id="edge6" class="edge">
<title>bf41bbec&#45;f749&#45;4c30&#45;b31c&#45;0b283c3e8e6a&#45;&gt;874a33d6&#45;5739&#45;4e91&#45;a1c2&#45;cbd38f717ebc</title>
<path fill="none" stroke="black" d="M1018.38,-99.87C1044.53,-99.87 1070.69,-99.87 1096.84,-99.87"/>
<polygon fill="black" stroke="black" points="1096.86,-103.37 1106.86,-99.87 1096.86,-96.37 1096.86,-103.37"/>
</g>
<!-- 1ec39c30&#45;7818&#45;4b9a&#45;a037&#45;85c4d1e6e1cc -->
<g id="node9" class="node">
<title>1ec39c30&#45;7818&#45;4b9a&#45;a037&#45;85c4d1e6e1cc</title>
<polygon fill="white" stroke="black" points="1094.5,-36 807.5,-36 807.5,0 1094.5,0 1094.5,-36"/>
<text text-anchor="middle" x="951" y="-14.3" font-family="Helvetica,sans-Serif" font-size="14.00">▶ Run GitHub Actions for `src/index.js`</text>
</g>
<!-- bf41bbec&#45;f749&#45;4c30&#45;b31c&#45;0b283c3e8e6a&#45;&gt;1ec39c30&#45;7818&#45;4b9a&#45;a037&#45;85c4d1e6e1cc -->
<g id="edge5" class="edge">
<title>bf41bbec&#45;f749&#45;4c30&#45;b31c&#45;0b283c3e8e6a&#45;&gt;1ec39c30&#45;7818&#45;4b9a&#45;a037&#45;85c4d1e6e1cc</title>
<path fill="none" stroke="black" stroke-dasharray="5,2" d="M951,-72.72C951,-64.27 951,-54.89 951,-46.36"/>
<polygon fill="black" stroke="black" points="954.5,-46.15 951,-36.15 947.5,-46.15 954.5,-46.15"/>
</g>
<!-- 874a33d6&#45;5739&#45;4e91&#45;a1c2&#45;cbd38f717ebc&#45;&gt;end -->
<g id="edge9" class="edge">
<title>874a33d6&#45;5739&#45;4e91&#45;a1c2&#45;cbd38f717ebc&#45;&gt;end</title>
<path fill="none" stroke="black" d="M1449.21,-99.87C1469.15,-99.87 1486.02,-99.87 1496.29,-99.87"/>
<polygon fill="black" stroke="black" points="1496.36,-103.37 1506.36,-99.87 1496.36,-96.37 1496.36,-103.37"/>
<text text-anchor="middle" x="1477.81" y="-106.67" font-family="Helvetica,sans-Serif" font-size="14.00">Finish</text>
</g>
<!-- 16f25182&#45;fa66&#45;4a85&#45;9a2c&#45;756b77ded34a -->
<g id="node10" class="node">
<title>16f25182&#45;fa66&#45;4a85&#45;9a2c&#45;756b77ded34a</title>
<polygon fill="white" stroke="black" points="1547,-36 1113,-36 1113,0 1547,0 1547,-36"/>
<text text-anchor="middle" x="1330" y="-14.3" font-family="Helvetica,sans-Serif" font-size="14.00">▶ Run GitHub Actions for `autogram_enhanced/src/index.js`</text>
</g>
<!-- 874a33d6&#45;5739&#45;4e91&#45;a1c2&#45;cbd38f717ebc&#45;&gt;16f25182&#45;fa66&#45;4a85&#45;9a2c&#45;756b77ded34a -->
<g id="edge7" class="edge">
<title>874a33d6&#45;5739&#45;4e91&#45;a1c2&#45;cbd38f717ebc&#45;&gt;16f25182&#45;fa66&#45;4a85&#45;9a2c&#45;756b77ded34a</title>
<path fill="none" stroke="black" stroke-dasharray="5,2" d="M1295.03,-72.72C1300.89,-63.71 1307.45,-53.64 1313.29,-44.67"/>
<polygon fill="black" stroke="black" points="1316.31,-46.44 1318.84,-36.15 1310.45,-42.62 1316.31,-46.44"/>
</g>
</g>
</svg>
