<?xml version="1.0" encoding="UTF-8" standalone="no"?>
<!DOCTYPE svg PUBLIC "-//W3C//DTD SVG 1.1//EN"
 "http://www.w3.org/Graphics/SVG/1.1/DTD/svg11.dtd">
<!-- Generated by graphviz version 2.43.0 (0)
 -->
<!-- Title: %3 Pages: 1 -->
<svg width="2186pt" height="238pt"
 viewBox="0.00 0.00 2185.50 237.74" xmlns="http://www.w3.org/2000/svg" xmlns:xlink="http://www.w3.org/1999/xlink">
<g id="graph0" class="graph" transform="scale(1 1) rotate(0) translate(36 201.74)">
<title>%3</title>
<polygon fill="dimgray" stroke="transparent" points="-36,36 -36,-201.74 2149.5,-201.74 2149.5,36 -36,36"/>
<text text-anchor="middle" x="1056.75" y="-150.54" font-family="Helvetica,sans-Serif" font-size="14.00">Sweep&#39;s Plan &amp; Progress</text>
<!-- start -->
<g id="node1" class="node">
<title>start</title>
</g>
<!-- 69dd3a8c&#45;2142&#45;4a91&#45;a100&#45;a94aed18d641 -->
<g id="node3" class="node">
<title>69dd3a8c&#45;2142&#45;4a91&#45;a100&#45;a94aed18d641</title>
<ellipse fill="yellow" stroke="black" cx="277.5" cy="-99.87" rx="224.72" ry="26.74"/>
<text text-anchor="middle" x="277.5" y="-103.67" font-family="Helvetica,sans-Serif" font-size="14.00">⋯ Create</text>
<text text-anchor="middle" x="277.5" y="-88.67" font-family="Helvetica,sans-Serif" font-size="14.00">autogram_enhanced/src/accountManager.js</text>
</g>
<!-- start&#45;&gt;69dd3a8c&#45;2142&#45;4a91&#45;a100&#45;a94aed18d641 -->
<g id="edge8" class="edge">
<title>start&#45;&gt;69dd3a8c&#45;2142&#45;4a91&#45;a100&#45;a94aed18d641</title>
<path fill="none" stroke="black" d="M1.29,-99.87C4.89,-99.87 20.4,-99.87 42.39,-99.87"/>
<polygon fill="black" stroke="black" points="42.56,-103.37 52.56,-99.87 42.56,-96.37 42.56,-103.37"/>
<text text-anchor="middle" x="26.82" y="-106.67" font-family="Helvetica,sans-Serif" font-size="14.00">Start</text>
</g>
<!-- end -->
<g id="node2" class="node">
<title>end</title>
</g>
<!-- c651f3d7&#45;e9cb&#45;4131&#45;9d1f&#45;e47443423b65 -->
<g id="node4" class="node">
<title>c651f3d7&#45;e9cb&#45;4131&#45;9d1f&#45;e47443423b65</title>
<ellipse fill="white" stroke="black" cx="809.5" cy="-99.87" rx="254.62" ry="26.74"/>
<text text-anchor="middle" x="809.5" y="-103.67" font-family="Helvetica,sans-Serif" font-size="14.00">▶ Modify</text>
<text text-anchor="middle" x="809.5" y="-88.67" font-family="Helvetica,sans-Serif" font-size="14.00">autogram_enhanced/src/customizationManager.js</text>
</g>
<!-- 69dd3a8c&#45;2142&#45;4a91&#45;a100&#45;a94aed18d641&#45;&gt;c651f3d7&#45;e9cb&#45;4131&#45;9d1f&#45;e47443423b65 -->
<g id="edge2" class="edge">
<title>69dd3a8c&#45;2142&#45;4a91&#45;a100&#45;a94aed18d641&#45;&gt;c651f3d7&#45;e9cb&#45;4131&#45;9d1f&#45;e47443423b65</title>
<path fill="none" stroke="black" d="M502.46,-99.87C516.53,-99.87 530.61,-99.87 544.68,-99.87"/>
<polygon fill="black" stroke="black" points="544.93,-103.37 554.93,-99.87 544.93,-96.37 544.93,-103.37"/>
</g>
<!-- 2b9406c7&#45;e79a&#45;4543&#45;9c98&#45;6728c51e157b -->
<g id="node7" class="node">
<title>2b9406c7&#45;e79a&#45;4543&#45;9c98&#45;6728c51e157b</title>
<polygon fill="white" stroke="black" points="516,-36 7,-36 7,0 516,0 516,-36"/>
<text text-anchor="middle" x="261.5" y="-14.3" font-family="Helvetica,sans-Serif" font-size="14.00">▶ Run GitHub Actions for `autogram_enhanced/src/accountManager.js`</text>
</g>
<!-- 69dd3a8c&#45;2142&#45;4a91&#45;a100&#45;a94aed18d641&#45;&gt;2b9406c7&#45;e79a&#45;4543&#45;9c98&#45;6728c51e157b -->
<g id="edge1" class="edge">
<title>69dd3a8c&#45;2142&#45;4a91&#45;a100&#45;a94aed18d641&#45;&gt;2b9406c7&#45;e79a&#45;4543&#45;9c98&#45;6728c51e157b</title>
<path fill="none" stroke="black" stroke-dasharray="5,2" d="M272.26,-72.72C270.55,-64.18 268.65,-54.68 266.92,-46.08"/>
<polygon fill="black" stroke="black" points="270.33,-45.26 264.93,-36.15 263.47,-46.64 270.33,-45.26"/>
</g>
<!-- cdec47af&#45;246b&#45;41b4&#45;8922&#45;b41b6f2ee9f1 -->
<g id="node5" class="node">
<title>cdec47af&#45;246b&#45;41b4&#45;8922&#45;b41b6f2ee9f1</title>
<ellipse fill="white" stroke="black" cx="1377.5" cy="-99.87" rx="251.96" ry="26.74"/>
<text text-anchor="middle" x="1377.5" y="-103.67" font-family="Helvetica,sans-Serif" font-size="14.00">▶ Modify</text>
<text text-anchor="middle" x="1377.5" y="-88.67" font-family="Helvetica,sans-Serif" font-size="14.00">autogram_enhanced/src/engagementEnhancer.js</text>
</g>
<!-- c651f3d7&#45;e9cb&#45;4131&#45;9d1f&#45;e47443423b65&#45;&gt;cdec47af&#45;246b&#45;41b4&#45;8922&#45;b41b6f2ee9f1 -->
<g id="edge4" class="edge">
<title>c651f3d7&#45;e9cb&#45;4131&#45;9d1f&#45;e47443423b65&#45;&gt;cdec47af&#45;246b&#45;41b4&#45;8922&#45;b41b6f2ee9f1</title>
<path fill="none" stroke="black" d="M1064.1,-99.87C1081.24,-99.87 1098.38,-99.87 1115.53,-99.87"/>
<polygon fill="black" stroke="black" points="1115.62,-103.37 1125.62,-99.87 1115.62,-96.37 1115.62,-103.37"/>
</g>
<!-- 34ff7259&#45;0b92&#45;4886&#45;926a&#45;2a79501e5304 -->
<g id="node8" class="node">
<title>34ff7259&#45;0b92&#45;4886&#45;926a&#45;2a79501e5304</title>
<polygon fill="white" stroke="black" points="1085,-36 534,-36 534,0 1085,0 1085,-36"/>
<text text-anchor="middle" x="809.5" y="-14.3" font-family="Helvetica,sans-Serif" font-size="14.00">▶ Run GitHub Actions for `autogram_enhanced/src/customizationManager.js`</text>
</g>
<!-- c651f3d7&#45;e9cb&#45;4131&#45;9d1f&#45;e47443423b65&#45;&gt;34ff7259&#45;0b92&#45;4886&#45;926a&#45;2a79501e5304 -->
<g id="edge3" class="edge">
<title>c651f3d7&#45;e9cb&#45;4131&#45;9d1f&#45;e47443423b65&#45;&gt;34ff7259&#45;0b92&#45;4886&#45;926a&#45;2a79501e5304</title>
<path fill="none" stroke="black" stroke-dasharray="5,2" d="M809.5,-72.72C809.5,-64.27 809.5,-54.89 809.5,-46.36"/>
<polygon fill="black" stroke="black" points="813,-46.15 809.5,-36.15 806,-46.15 813,-46.15"/>
</g>
<!-- 21d847b4&#45;c082&#45;468a&#45;b971&#45;49777b44c4c8 -->
<g id="node6" class="node">
<title>21d847b4&#45;c082&#45;468a&#45;b971&#45;49777b44c4c8</title>
<ellipse fill="white" stroke="black" cx="1867.5" cy="-99.87" rx="178.8" ry="26.74"/>
<text text-anchor="middle" x="1867.5" y="-103.67" font-family="Helvetica,sans-Serif" font-size="14.00">▶ Modify</text>
<text text-anchor="middle" x="1867.5" y="-88.67" font-family="Helvetica,sans-Serif" font-size="14.00">autogram_enhanced/autogram.py</text>
</g>
<!-- cdec47af&#45;246b&#45;41b4&#45;8922&#45;b41b6f2ee9f1&#45;&gt;21d847b4&#45;c082&#45;468a&#45;b971&#45;49777b44c4c8 -->
<g id="edge6" class="edge">
<title>cdec47af&#45;246b&#45;41b4&#45;8922&#45;b41b6f2ee9f1&#45;&gt;21d847b4&#45;c082&#45;468a&#45;b971&#45;49777b44c4c8</title>
<path fill="none" stroke="black" d="M1629.68,-99.87C1645.83,-99.87 1661.99,-99.87 1678.15,-99.87"/>
<polygon fill="black" stroke="black" points="1678.2,-103.37 1688.2,-99.87 1678.2,-96.37 1678.2,-103.37"/>
</g>
<!-- 63f83171&#45;39ac&#45;448e&#45;870e&#45;4bd10a3788b7 -->
<g id="node9" class="node">
<title>63f83171&#45;39ac&#45;448e&#45;870e&#45;4bd10a3788b7</title>
<polygon fill="white" stroke="black" points="1651.5,-36 1103.5,-36 1103.5,0 1651.5,0 1651.5,-36"/>
<text text-anchor="middle" x="1377.5" y="-14.3" font-family="Helvetica,sans-Serif" font-size="14.00">▶ Run GitHub Actions for `autogram_enhanced/src/engagementEnhancer.js`</text>
</g>
<!-- cdec47af&#45;246b&#45;41b4&#45;8922&#45;b41b6f2ee9f1&#45;&gt;63f83171&#45;39ac&#45;448e&#45;870e&#45;4bd10a3788b7 -->
<g id="edge5" class="edge">
<title>cdec47af&#45;246b&#45;41b4&#45;8922&#45;b41b6f2ee9f1&#45;&gt;63f83171&#45;39ac&#45;448e&#45;870e&#45;4bd10a3788b7</title>
<path fill="none" stroke="black" stroke-dasharray="5,2" d="M1377.5,-72.72C1377.5,-64.27 1377.5,-54.89 1377.5,-46.36"/>
<polygon fill="black" stroke="black" points="1381,-46.15 1377.5,-36.15 1374,-46.15 1381,-46.15"/>
</g>
<!-- 21d847b4&#45;c082&#45;468a&#45;b971&#45;49777b44c4c8&#45;&gt;end -->
<g id="edge9" class="edge">
<title>21d847b4&#45;c082&#45;468a&#45;b971&#45;49777b44c4c8&#45;&gt;end</title>
<path fill="none" stroke="black" d="M2046.52,-99.87C2066.6,-99.87 2083.51,-99.87 2093.79,-99.87"/>
<polygon fill="black" stroke="black" points="2093.86,-103.37 2103.86,-99.87 2093.86,-96.37 2093.86,-103.37"/>
<text text-anchor="middle" x="2075.2" y="-106.67" font-family="Helvetica,sans-Serif" font-size="14.00">Finish</text>
</g>
<!-- 3c31cc6c&#45;b42f&#45;4220&#45;bfa9&#45;cc2dbda30d02 -->
<g id="node10" class="node">
<title>3c31cc6c&#45;b42f&#45;4220&#45;bfa9&#45;cc2dbda30d02</title>
<polygon fill="white" stroke="black" points="2113.5,-36 1669.5,-36 1669.5,0 2113.5,0 2113.5,-36"/>
<text text-anchor="middle" x="1891.5" y="-14.3" font-family="Helvetica,sans-Serif" font-size="14.00">▶ Run GitHub Actions for `autogram_enhanced/autogram.py`</text>
</g>
<!-- 21d847b4&#45;c082&#45;468a&#45;b971&#45;49777b44c4c8&#45;&gt;3c31cc6c&#45;b42f&#45;4220&#45;bfa9&#45;cc2dbda30d02 -->
<g id="edge7" class="edge">
<title>21d847b4&#45;c082&#45;468a&#45;b971&#45;49777b44c4c8&#45;&gt;3c31cc6c&#45;b42f&#45;4220&#45;bfa9&#45;cc2dbda30d02</title>
<path fill="none" stroke="black" stroke-dasharray="5,2" d="M1875.36,-72.72C1877.95,-64.08 1880.84,-54.47 1883.45,-45.79"/>
<polygon fill="black" stroke="black" points="1886.82,-46.73 1886.35,-36.15 1880.12,-44.72 1886.82,-46.73"/>
</g>
</g>
</svg>
